<?xml version="1.0" encoding="UTF-8" standalone="yes"?>
<svg xmlns="http://www.w3.org/2000/svg" xmlns:xlink="http://www.w3.org/1999/xlink" width="40pt" height="40pt" viewBox="0 0 40 40" version="1.1" fill="#000000">
  <g id="surface70795">
    <path style="fill:none;stroke-width:2;stroke-linecap:round;stroke-linejoin:miter;stroke:#000000;stroke-opacity:1;stroke-miterlimit:10;" d="M 25 3.007812 C 12.851562 3.007812 2.998047 12.856445 2.998047 25.009766 C 2.998047 37.158203 12.851562 47.006836 25 47.006836 C 37.148438 47.006836 47.001953 37.158203 47.001953 25.009766 C 47.001953 12.856445 37.148438 3.007812 25 3.007812 Z M 25 3.007812 " transform="matrix(0.8,0,0,0.8,0,0)"/>
    <path style="fill:none;stroke-width:2;stroke-linecap:round;stroke-linejoin:miter;stroke:#000000;stroke-opacity:1;stroke-miterlimit:10;" d="M 40 41.000977 C 36.59668 37.973633 30.249023 37.978516 29.091797 34.858398 C 28.959961 33.383789 29.008789 32.348633 29.008789 31.000977 C 29.677734 30.649414 31.308594 28.344727 31.508789 26.450195 C 32.036133 26.411133 32.866211 25.898438 33.110352 23.867188 C 33.242188 22.783203 32.719727 22.167969 32.402344 21.977539 C 33.256836 19.399414 35.03418 11.435547 29.111328 10.610352 C 28.500977 9.541016 26.943359 8.999023 24.912109 8.999023 C 16.796875 9.150391 15.820312 15.126953 17.597656 21.977539 C 17.280273 22.167969 16.762695 22.783203 16.889648 23.867188 C 17.133789 25.898438 17.963867 26.411133 18.491211 26.450195 C 18.691406 28.339844 20.322266 30.649414 20.991211 31.000977 C 20.991211 32.348633 21.040039 33.383789 20.908203 34.858398 C 19.750977 37.96875 13.422852 38.00293 10 41.000977 " transform="matrix(0.8,0,0,0.8,0,0)"/>
  </g>
</svg>
